<svg t="1602466911114" class="icon" viewBox="0 0 1024 1024" version="1.1" xmlns="http://www.w3.org/2000/svg" p-id="3114" width="200" height="200"><path d="M800.443733 987.931307c-108.967253 0-198.673067-91.262293-198.673066-202.144427s89.705813-202.14784 198.673066-202.14784c108.96384 0 198.673067 91.262293 198.673067 202.14784 0.119467 110.87872-89.709227 202.144427-198.673067 202.144427z m12.916054-293.40672l-121.883307 123.917653c-6.464853 6.580907-6.464853 6.580907-6.464853 13.038933l-6.458027 58.7264c0 6.577493 0 6.577493 6.458027 6.577494l57.658026-6.577494c6.46144 0 12.8-6.577493 12.8-6.577493l121.76384-123.921067c6.46144-6.580907 6.46144-6.580907-6.464853-19.613013l-44.854613-45.697707h-12.561067l0.006827 0.126294z m102.509226 13.042346l-44.858026-45.697706h-12.8l-12.796587 13.03552v13.038933l44.858027 45.69088h12.8l12.796586-13.03552v-13.032107z m-371.75296 71.76192c0 110.875307 70.4512 202.144427 160.27648 241.257814H185.163093C95.453867 1020.586667 24.8832 955.395413 24.8832 870.59456V153.40544C24.8832 68.601173 95.453867 3.413333 185.163093 3.413333h512.774827c89.705813 0 160.27648 65.191253 160.27648 149.992107v371.63008c-19.258027-6.58432-38.51264-6.58432-57.654613-6.58432-141.141333 0.003413-256.443733 117.466453-256.443734 260.877653z m-326.894933-19.616426h269.247147c25.596587 0 44.8512-19.616427 44.8512-45.694294 0-26.074453-19.258027-45.69088-44.8512-45.69088H217.22112c-25.6 0-44.854613 19.616427-44.854613 45.69088-0.003413 26.197333 19.254613 45.694293 44.854613 45.694294z m0-188.982614h365.410987c25.596587 0 44.858027-19.616427 44.858026-45.694293s-19.26144-45.694293-44.858026-45.694293H217.22112c-25.6 0-44.854613 19.616427-44.854613 45.694293-0.003413 26.077867 19.254613 45.694293 44.854613 45.694293z m467.9168-286.948693H217.22112c-25.6 0-44.854613 19.616427-44.854613 45.694293 0 26.074453 19.258027 45.694293 44.854613 45.694294h467.9168c25.596587 0 44.858027-19.61984 44.858027-45.694294-0.003413-26.077867-19.26144-45.694293-44.858027-45.694293z" p-id="3115"></path></svg>