<svg t="1609829417150" class="icon" viewBox="0 0 1024 1024" version="1.1" xmlns="http://www.w3.org/2000/svg" p-id="1904" width="200" height="200"><path d="M960.4096 585.728c-77.312-51.456-158.0544-59.5968-241.3056-18.6368-56.1152 27.648-93.5424 73.216-112.4864 132.4544a222.1056 222.1056 0 0 0 0.512 138.496 220.672 220.672 0 0 0 80.7424 111.7696c38.8096 28.672 82.5344 43.6224 130.9696 45.056h-6.9632c-206.592 0-413.184 0.1024-619.7248-0.0512-22.3232 0-44.0832-3.9424-64.3584-14.0288a134.656 134.656 0 0 1-56.8832-51.9168 122.3168 122.3168 0 0 1-18.5344-56.0128c-0.3072-5.0688-1.0752-10.0864-1.0752-15.1552-0.1024-242.176-0.2048-484.352 0.1024-726.528 0.0512-29.5936 10.752-56.2176 29.3376-79.616 12.4416-15.6672 27.4944-28.2624 45.312-37.1712 14.1824-7.0656 29.184-12.4928 45.4144-13.1584 13.568-0.512 27.136-1.1264 40.7552-1.1776C417.28 0 622.2336 0 827.1872 0.1024c29.2352 0 55.7568 9.3696 79.0016 27.0336 23.552 17.8688 40.6528 40.5504 48.3328 69.2224 3.072 11.4688 5.632 23.552 5.632 35.328 0.4096 148.8384 0.3072 297.6768 0.3072 446.5664v7.4752zM505.856 428.9024c90.9312 0 181.8112-0.1024 272.7424 0.1536a22.3232 22.3232 0 0 0 22.5792-22.784c-0.1024-12.6976-10.752-22.2208-24.9344-22.2208H235.52a37.7856 37.7856 0 0 0-8.0384 1.1776c-9.9328 2.2016-18.3296 13.056-16.896 22.6816 1.6896 11.9808 8.8064 21.0944 21.9648 21.0432H505.856z m0.1024-224.4608l-273.3056-0.0512c-8.3968 0-14.848 3.2768-18.8416 10.4448-4.1984 7.5776-4.096 15.4112 0.1024 23.04 5.3248 9.7792 14.7456 11.3664 24.5248 11.4176H769.024c4.3008 0 8.5504-0.768 12.8-1.1264 13.1072-1.024 20.736-13.4144 19.3024-24.576a22.2208 22.2208 0 0 0-23.04-19.3536c-90.6752 0.3584-181.4016 0.2048-272.128 0.2048z m-136.4992 405.248c45.568 0 91.0336-0.2048 136.5504 0.1536a22.784 22.784 0 0 0 22.784-21.76c0-12.9024-8.192-23.1936-23.0912-23.1936-90.624-0.1536-181.2992-0.1024-271.9232-0.0512-13.312 0-23.1424 9.728-23.1424 22.6816 0 11.776 10.4448 22.4768 22.8864 22.3744 45.312-0.4608 90.624-0.2048 135.936-0.2048z m-22.9376 180.7872c37.8368 0 75.6224-0.2048 113.4592 0.1024a23.2448 23.2448 0 0 0 23.04-21.9136 23.04 23.04 0 0 0-23.04-23.1936c-75.2128 0.2048-150.4256 0.1536-225.6384 0.1024-13.6192 0-23.9104 9.728-23.6544 22.7328 0.2048 13.312 10.6496 22.2208 23.6032 22.1696h112.2304z m659.0976-22.3744a181.76 181.76 0 0 1-188.7232 180.5824c-92.16-2.9184-178.432-79.9744-174.7968-188.1088a181.3504 181.3504 0 0 1 189.184-173.1072 181.3504 181.3504 0 0 1 174.336 180.6336zM846.336 768c0-38.144 0.2048-75.3664-0.1024-112.5376-0.1024-15.5648-10.24-23.0912-23.1424-23.04-12.9024 0.1024-21.8624 9.6256-21.8624 23.1424-0.1024 45.056-0.0512 90.112 0 135.2192 0 12.5952 9.3696 22.0672 22.016 22.0672h92.672c1.536 0 3.2256 0.2048 4.7104-0.256 11.6736-3.4304 18.3296-14.592 15.9232-27.5456-1.7408-9.216-10.4448-17.2032-22.6304-17.1008-20.1728 0.1536-40.3968 0-60.5696 0h-7.0144z" fill="#FF5F61" p-id="1905"></path></svg>