<svg t="1602422023028" class="icon" viewBox="0 0 1024 1024" version="1.1" xmlns="http://www.w3.org/2000/svg" p-id="2705" width="32" height="32"><path d="M832 149.312a128 128 0 0 1 128 128v469.376a128 128 0 0 1-128 128H192a128 128 0 0 1-128-128V277.312a128 128 0 0 1 128-128h640zM917.312 640H106.624v106.752c0 44.992 34.88 81.792 78.976 85.12L192 832h640c44.992 0 81.856-34.816 85.12-78.976l0.192-6.4V640zM832 192H192c-44.992 0-81.856 34.816-85.12 78.976l-0.192 6.4-0.064 320h810.688v-320c0-45.056-34.816-81.92-78.912-85.12L832 192zM320 298.688c11.776 0 21.312 9.536 21.312 21.312v2.112c0 11.776-9.536 21.376-21.312 21.376H234.688a21.312 21.312 0 0 1-21.376-21.376V320c0-11.776 9.6-21.312 21.376-21.312H320z m213.312 0c11.776 0 21.376 9.536 21.376 21.312v2.112c0 11.776-9.6 21.376-21.376 21.376H448a21.312 21.312 0 0 1-21.312-21.376V320c0-11.776 9.536-21.312 21.312-21.312h85.312z" p-id="2706"></path></svg>