<svg t="1602554890761" class="icon" viewBox="0 0 1177 1024" version="1.1" xmlns="http://www.w3.org/2000/svg" p-id="931" width="200" height="200"><path d="M1145.978651 283.074503H1000.7038l72.253425-72.376305c47.82079-47.98463 47.56479-125.491175-0.26624-173.230045C1048.78059 13.619197 1017.415477 1.792 986.050363 1.792a122.992615 122.992615 0 0 0-86.906863 35.942392L654.366589 282.808263H31.621114a30.750714 30.750714 0 0 0-30.853114 30.801914v679.577464A30.750714 30.750714 0 0 0 31.621114 1023.999795h1114.357537a30.750714 30.750714 0 0 0 30.853114-30.801914V314.132417a30.975994 30.975994 0 0 0-30.853114-31.057914zM943.103811 81.612784a60.129268 60.129268 0 0 1 42.946552-17.715197c16.199677 0 31.365114 6.164479 42.936311 17.715197a59.903988 59.903988 0 0 1 17.735677 42.854391 59.903988 59.903988 0 0 1-17.735677 42.864632L566.169487 630.568834l-93.593582 7.700478 7.464959-93.419501L943.103811 81.612784z m172.011486 881.305423H62.484468v-617.983876h530.175893L420.126636 517.631896l-13.885437 172.462046a13.701117 13.701117 0 0 0 13.629437 14.888957h1.29024l172.779485-14.622717L939.007812 344.924091h175.861725v617.994116h0.256z" fill="#f5f5f5" p-id="932"></path><path d="M743.587691 777.369445H186.408923a30.750714 30.750714 0 0 0-30.853114 30.791673 30.750714 30.750714 0 0 0 30.853114 30.801914h557.178768a30.750714 30.750714 0 0 0 30.853114-30.801914 30.924794 30.924794 0 0 0-30.853114-30.791673z" fill="#f5f5f5" p-id="933"></path></svg>