<svg t="1602422082510" class="icon" viewBox="0 0 1024 1024" version="1.1" xmlns="http://www.w3.org/2000/svg" p-id="2835" width="32" height="32"><path d="M785.067 202.524H93.297c-20.138 0-36.408 16.27-36.408 36.41v691.768c0 20.139 16.27 36.41 36.409 36.41h691.769c20.138 0 36.409-16.271 36.409-36.41V238.933c0-20.138-16.27-36.409-36.41-36.409z m-45.511 682.667H138.809V284.444h600.747v600.747z" p-id="2836"></path><path d="M930.702 56.889h-700.87c-5.007 0-9.103 4.096-9.103 9.102v63.716c0 5.006 4.096 9.102 9.102 9.102h655.36v655.36c0 5.006 4.096 9.102 9.102 9.102h63.716c5.006 0 9.102-4.096 9.102-9.102V93.298c0-20.139-16.27-36.41-36.409-36.41z m-659.91 498.347h336.781v72.817H270.791z" p-id="2837"></path></svg>