<svg t="1602482135023" class="icon" viewBox="0 0 1024 1024" version="1.1" xmlns="http://www.w3.org/2000/svg" p-id="2519" width="200" height="200"><path d="M896 896H128a42.666667 42.666667 0 0 1-42.666667-42.666667v-320.554666a42.666667 42.666667 0 0 1 14.634667-32.170667L256 364.544V170.666667a42.666667 42.666667 0 0 1 42.666667-42.666667h597.333333a42.666667 42.666667 0 0 1 42.666667 42.666667v682.666666a42.666667 42.666667 0 0 1-42.666667 42.666667zM384 810.666667h128v-258.474667L341.333333 403.370667l-170.666666 148.821333V810.666667h128v-170.666667h85.333333v170.666667z m213.333333 0h256V213.333333H341.333333v90.752c9.984 0 20.010667 3.498667 28.032 10.538667l213.333334 185.984a42.666667 42.666667 0 0 1 14.634666 32.170667V810.666667z m85.333334-341.333334h85.333333v85.333334h-85.333333v-85.333334z m0 170.666667h85.333333v85.333333h-85.333333v-85.333333z m0-341.333333h85.333333v85.333333h-85.333333V298.666667z m-170.666667 0h85.333333v85.333333h-85.333333V298.666667z" p-id="2520"></path></svg>