<svg t="1609829485223" class="icon" viewBox="0 0 1024 1024" version="1.1" xmlns="http://www.w3.org/2000/svg" p-id="2699" width="64" height="64"><path d="M672.256 262.656H356.352c-2.816 0-5.12-2.304-5.12-5.12V104.704c0-2.816 2.304-5.12 5.12-5.12h315.904c2.816 0 5.12 2.304 5.12 5.12v152.832c0 2.816-2.304 5.12-5.12 5.12z" fill="#43DE94" p-id="2700"></path><path d="M836.864 190.208h-120.832v73.216c0 17.92-13.568 32.768-31.488 32.768H341.76c-17.92 0-33.792-14.848-33.792-32.768V190.208H189.44c-46.336 0-85.248 41.728-85.248 88.064V842.24c0 46.336 38.912 81.92 85.248 81.92h647.168c46.336 0 82.944-35.584 82.944-81.92V278.272c0.256-46.336-36.608-88.064-82.688-88.064z m-143.616 347.136l-196.096 196.096c-12.8 12.8-33.536 12.8-46.08 0l-0.512-0.512-115.712-115.712c-12.544-12.544-12.544-33.024 0-45.312l0.768-0.768c12.544-12.544 33.024-12.544 45.312 0l93.184 93.184 173.056-173.056c12.8-12.8 33.536-12.8 46.08 0 12.8 12.8 12.8 33.536 0 46.08z" fill="#43DE94" p-id="2701"></path></svg>