<svg t="1609898611659" class="icon" viewBox="0 0 1024 1024" version="1.1" xmlns="http://www.w3.org/2000/svg" p-id="7989" width="200" height="200"><path d="M1007.882409 937.214728h-49.801243V316.731896a46.526331 46.526331 0 0 0-23.319629-40.484684l-254.144438-147.935665a46.752187 46.752187 0 0 0-70.410601 40.202364v768.474961h-53.01969V46.834004a46.978043 46.978043 0 0 0-21.230462-39.186012 48.559035 48.559035 0 0 0-44.324236-4.121872L94.746695 174.103846a47.090971 47.090971 0 0 0-28.231997 43.25142v719.859462H16.374671a16.318094 16.318094 0 0 0-16.374558 16.374558v54.036043a16.318094 16.318094 0 0 0 16.374558 16.374558h991.281882a16.318094 16.318094 0 0 0 16.374559-16.374558v-54.036043a15.640526 15.640526 0 0 0-16.148703-16.374558z m-734.031924-57.367418a16.318094 16.318094 0 0 1-16.374559 16.374558h-52.624442a16.318094 16.318094 0 0 1-16.374558-16.374558v-52.737371a16.318094 16.318094 0 0 1 16.374558-16.374558h52.73737a16.318094 16.318094 0 0 1 16.374559 16.374558v52.737371z m0-132.633922a16.318094 16.318094 0 0 1-16.374559 16.374558h-52.624442a16.318094 16.318094 0 0 1-16.374558-16.374558v-52.737371a16.318094 16.318094 0 0 1 16.374558-16.374558h52.73737a16.318094 16.318094 0 0 1 16.374559 16.374558v52.737371z m0-132.916243a16.318094 16.318094 0 0 1-16.374559 16.374559h-52.624442a16.318094 16.318094 0 0 1-16.374558-16.374559v-52.73737a16.318094 16.318094 0 0 1 16.374558-16.374559h52.73737a16.318094 16.318094 0 0 1 16.374559 16.374559v52.73737z m0-132.916242a16.318094 16.318094 0 0 1-16.374559 16.374558h-52.624442a16.318094 16.318094 0 0 1-16.374558-16.374558v-52.737371a16.318094 16.318094 0 0 1 16.374558-16.374558h52.73737a16.318094 16.318094 0 0 1 16.374559 16.374558v52.737371z m0-132.633923a16.318094 16.318094 0 0 1-16.374559 16.374559h-52.624442a16.318094 16.318094 0 0 1-16.374558-16.600414v-52.511515a16.318094 16.318094 0 0 1 16.374558-16.374558h52.73737a16.318094 16.318094 0 0 1 16.374559 16.374558v52.511515z m160.188351 531.10033a16.318094 16.318094 0 0 1-16.374558 16.374558h-52.737371a16.318094 16.318094 0 0 1-16.374558-16.374558v-52.737371a16.318094 16.318094 0 0 1 16.374558-16.374558h52.511515a16.318094 16.318094 0 0 1 16.374558 16.374558v52.737371z m0-132.633922a16.318094 16.318094 0 0 1-16.374558 16.374558h-52.737371a16.318094 16.318094 0 0 1-16.374558-16.374558v-52.737371a16.318094 16.318094 0 0 1 16.374558-16.374558h52.511515a16.318094 16.318094 0 0 1 16.374558 16.374558v52.737371z m0-132.916243a16.318094 16.318094 0 0 1-16.374558 16.374559h-52.737371a16.318094 16.318094 0 0 1-16.374558-16.374559v-52.73737a16.318094 16.318094 0 0 1 16.374558-16.374559h52.511515a16.318094 16.318094 0 0 1 16.374558 16.374559v52.73737z m0-132.916242a16.318094 16.318094 0 0 1-16.374558 16.374558h-52.737371a16.318094 16.318094 0 0 1-16.374558-16.374558v-52.737371a16.318094 16.318094 0 0 1 16.374558-16.374558h52.511515a16.318094 16.318094 0 0 1 16.374558 16.374558v52.737371z m0-132.633923a16.318094 16.318094 0 0 1-16.374558 16.374559h-52.737371a16.318094 16.318094 0 0 1-16.656878-16.600414v-52.511515a16.318094 16.318094 0 0 1 16.374558-16.374558h52.511515a16.318094 16.318094 0 0 1 16.374558 16.374558v52.511515z m0-132.916242a16.318094 16.318094 0 0 1-16.374558 16.374558h-52.737371a16.318094 16.318094 0 0 1-16.374558-16.374558v-52.73737a16.318094 16.318094 0 0 1 16.374558-16.374559h52.511515a16.318094 16.318094 0 0 1 16.374558 16.374559v52.73737z m391.29548 664.016572a16.318094 16.318094 0 0 1-16.374558 16.374558h-52.737371a16.318094 16.318094 0 0 1-16.374558-16.374558v-52.737371a16.318094 16.318094 0 0 1 16.374558-16.374558h52.737371a16.318094 16.318094 0 0 1 16.374558 16.374558v52.737371z m0-132.633922a16.318094 16.318094 0 0 1-16.374558 16.374558h-52.737371a16.318094 16.318094 0 0 1-16.374558-16.374558v-52.737371a16.318094 16.318094 0 0 1 16.374558-16.374558h52.737371a16.318094 16.318094 0 0 1 16.374558 16.374558v52.737371z m0-132.916243a16.318094 16.318094 0 0 1-16.374558 16.374559h-52.737371a16.318094 16.318094 0 0 1-16.374558-16.374559v-52.73737a16.318094 16.318094 0 0 1 16.374558-16.374559h52.737371a16.318094 16.318094 0 0 1 16.374558 16.374559v52.73737z m0-132.916242a16.318094 16.318094 0 0 1-16.374558 16.374558h-52.737371a16.318094 16.318094 0 0 1-16.374558-16.374558v-52.737371a16.318094 16.318094 0 0 1 16.374558-16.374558h52.737371a16.318094 16.318094 0 0 1 16.374558 16.374558v52.737371z m0-132.633923a16.318094 16.318094 0 0 1-16.374558 16.374559h-52.737371a16.318094 16.318094 0 0 1-16.374558-16.374559v-52.73737a16.318094 16.318094 0 0 1 16.374558-16.374558h52.737371a16.318094 16.318094 0 0 1 16.374558 16.374558v52.511515z" fill="#f70c39" p-id="7990"></path></svg>