<svg t="1602554397100" class="icon" viewBox="0 0 1024 1024" version="1.1" xmlns="http://www.w3.org/2000/svg" p-id="4893" width="200" height="200"><path d="M228.036923 532.873846l141.902769 141.902769-27.844923 27.844923-141.902769-141.902769-73.649231 73.609846a9.846154 9.846154 0 0 0 0 13.90277l193.851077 193.851077a9.846154 9.846154 0 0 0 13.902769 0L905.216 271.163077a9.846154 9.846154 0 0 0 0-13.902769L711.404308 63.409231a9.846154 9.846154 0 0 0-13.942154 0l-86.528 86.528 106.299077 106.259692-27.884308 27.844923-106.259692-106.259692-41.747693 41.747692 106.259693 106.299077-27.844923 27.844923-106.259693-106.259692-41.787077 41.747692 141.90277 141.942154-27.844923 27.844923-141.90277-141.942154-76.603077 76.603077 106.259693 106.259692-27.844923 27.844924-106.259693-106.259693-41.747692 41.747693 106.259692 106.299076-27.884307 27.844924-106.259693-106.259693-41.747692 41.747693zM960.787692 1024H53.366154a29.538462 29.538462 0 1 1 0-59.076923h907.421538a29.538462 29.538462 0 1 1 0 59.076923z m-13.784615-808.566154a68.923077 68.923077 0 0 1 0 97.516308L376.083692 883.790769a68.923077 68.923077 0 0 1-97.476923 0L84.795077 690.018462a68.923077 68.923077 0 0 1 0-97.476924L655.675077 21.661538a68.923077 68.923077 0 0 1 97.476923 0l193.851077 193.851077z" p-id="4894"></path></svg>